<svg id="Group_38" data-name="Group 38" xmlns="http://www.w3.org/2000/svg" xmlns:xlink="http://www.w3.org/1999/xlink" width="92.641" height="69.252" viewBox="0 0 92.641 69.252">
  <defs>
    <clipPath id="clip-path">
      <rect id="Rectangle_1" data-name="Rectangle 1" width="92.641" height="69.252" fill="none"/>
    </clipPath>
  </defs>
  <g id="Group_1" data-name="Group 1" clip-path="url(#clip-path)">
    <path id="Path_1" data-name="Path 1" d="M195.819,251.606c-2.714,6.613-8.458,15.777-10.621,14.292-1.068-.733,2.874-5.851,3.89-7.325,3.308-4.8,5.444-7.193,8.669-11.865.485-.7,5.328-7.389,3.009-8.168-1.363-.458-2.415.224-3.44,1.038a16.754,16.754,0,0,0-3.206,3.725,44.588,44.588,0,0,0-2.609,4.7c.038-.207.076-.414.111-.621a13.482,13.482,0,0,0,.155-5.5c-1.055-4.013-6.217,1.428-7.416,2.914-.338.418-.058,2.234.422,1.64.7-.868,5.451-6.177,5.979-3.531a10.855,10.855,0,0,1-.354,4.467c-.239.991-.743,2-.986,2.916-.06.229,1.155,2.113,1.6,1.433,1.093-1.665,2.019-3.448,3.113-5.088a41.185,41.185,0,0,1,2.777-3.891,10.891,10.891,0,0,1,2.292-2.319c.693-.264.335.447-.21,1.631-2.849,6.2-10.132,14.405-13.554,19.165-3.179,4.422-2.379,6.071-1.892,6.438,2.582,1.947,11.426-7.434,13.847-12.043a1.845,1.845,0,0,0,.15-1.3c-.072-.224-1.559-3.125-1.728-2.711M185.21,265.9l-.012,0a.011.011,0,0,1,.012,0" transform="translate(-165.541 -215.545)"/>
    <path id="Path_2" data-name="Path 2" d="M560.5,369.547c-2.714,6.613-8.458,15.777-10.621,14.292-1.068-.733,2.874-5.851,3.891-7.325,3.308-4.8,5.444-7.193,8.669-11.865.485-.7,5.328-7.389,3.009-8.168-1.363-.458-2.415.224-3.44,1.038a16.753,16.753,0,0,0-3.206,3.725,44.577,44.577,0,0,0-2.609,4.7c.038-.207.076-.414.111-.621a13.479,13.479,0,0,0,.155-5.5c-1.055-4.013-6.217,1.428-7.416,2.914-.338.418-.058,2.234.422,1.64.7-.868,5.451-6.177,5.979-3.531a10.854,10.854,0,0,1-.354,4.467c-.239.991-.743,2-.986,2.916-.061.229,1.155,2.113,1.6,1.433,1.093-1.665,2.019-3.448,3.113-5.088a41.185,41.185,0,0,1,2.777-3.891,10.894,10.894,0,0,1,2.292-2.319c.693-.264.335.447-.21,1.631-2.849,6.2-10.132,14.405-13.554,19.165-3.179,4.422-2.379,6.071-1.892,6.438,2.583,1.947,11.426-7.434,13.847-12.043a1.845,1.845,0,0,0,.15-1.3c-.072-.224-1.559-3.125-1.729-2.711m-10.609,14.29-.012,0a.011.011,0,0,1,.012,0" transform="translate(-495.269 -322.181)"/>
    <path id="Path_3" data-name="Path 3" d="M351.433,268.047c-.312-1.276-1.832-1.052-2.791-.768-3.183.941-5.742,3.87-7.477,6.594-.044.068-.089.141-.134.214-.925-.524-1.919-1.056-2.487-1.429-.545-.358-.992,2.712-.469,2.918a6.116,6.116,0,0,0,1.926.419c-.789,1.736-1.545,4.08-.128,5.128,1.353,1,5.923-3,7.025-4.419.369-.474,1.257-2.314.911-1.934-1.336,1.468-4.176,3.993-5.447,4.337-2.514.68-1.807-1.8-1.2-2.89.054-.1.11-.191.166-.286a11.914,11.914,0,0,0,3-.925,18.922,18.922,0,0,0,5.6-3.609c.9-.867,1.829-2,1.5-3.35m-1.786,2.4a12.873,12.873,0,0,1-3.924,2.816,8.845,8.845,0,0,1-3.453,1.048,32.479,32.479,0,0,1,4.172-4.194c.947-.751,3.2-2.6,3.925-1.579.254.36-.082,1.2-.721,1.908" transform="translate(-305.461 -241.463)"/>
    <path id="Path_4" data-name="Path 4" d="M450.326,183.076a40.948,40.948,0,0,0-11,3.024c.463-1.025,1.324-4.673-.387-5.024-2.619-.538-5.766,2.424-7.054,4.153-.321.431,1.12,3.417,1.5,2.735,1.292-2.33,3.929-5.859,5.035-5.336.919.434.093,3.178-.144,3.971-1.686.839-3.345,1.789-4.913,2.777a44.093,44.093,0,0,0-7.51,5.839c-1.365,1.347-2.927,2.976-3.408,4.9-.307,1.227-.062,3.038,1.516,3.076,1.645.04,3.358-1.387,4.551-2.35a38.406,38.406,0,0,0,9.814-11.8c.113-.217.3-.578.412-.809A51.6,51.6,0,0,1,450.3,185.29c.582-.082.61-2.313.029-2.214m-26.2,18.034c-1.108-1.107,2.246-5.187,4.946-7.311a47.163,47.163,0,0,1,8.52-5.252,47.529,47.529,0,0,1-7.213,8.786c-2.762,2.629-5.6,4.431-6.253,3.778" transform="translate(-381.849 -163.663)"/>
    <path id="Path_5" data-name="Path 5" d="M753.614,302.09c-6.552-.893-10.7.774-13.081,2.1-.7.387-.6,1.307-.112,1.149,3.5-1.125,6.58-1.712,12.856-.982.583.068.921-2.185.337-2.265" transform="translate(-669.104 -272.908)"/>
    <path id="Path_6" data-name="Path 6" d="M585.893,156.311c-1.677,1.809-3.177,3.11-5.167,5.012a28.149,28.149,0,0,1-4.516,3.564,16.234,16.234,0,0,1-3.81,1.54c-.584.166-1.506.123-1.7-.36-.525-1.288,1.143-3.51,1.838-4.579a95.766,95.766,0,0,1,5.719-7.925c1.487-1.884,2.7-2.979,4.386-4.8.366-.395-1.974.083-2.48.669a113.2,113.2,0,0,0-8.434,11.79c-.906,1.547-3.235,5.4-1.05,6.89,1.092.743,2.575.343,3.711-.065a23.182,23.182,0,0,0,5.007-2.728,64.782,64.782,0,0,0,7.475-5.914c.443-.406-.632-3.465-.975-3.1" transform="translate(-515.157 -134.376)"/>
    <path id="Path_7" data-name="Path 7" d="M723.293,275.472c-.906,1.548-3.235,5.4-1.05,6.89,1.092.743,2.575.343,3.711-.065a23.173,23.173,0,0,0,5.007-2.728,64.782,64.782,0,0,0,7.475-5.914c.443-.406-.632-3.465-.975-3.1-1.677,1.809-3.176,3.11-5.167,5.012a28.155,28.155,0,0,1-4.516,3.564,16.228,16.228,0,0,1-3.81,1.54c-.584.166-1.506.123-1.7-.36-.525-1.288,1.143-3.51,1.839-4.579a95.763,95.763,0,0,1,5.719-7.925c1.487-1.884,2.7-2.979,4.386-4.8.365-.395-1.974.083-2.48.669a113.206,113.206,0,0,0-8.434,11.789" transform="translate(-652.199 -237.675)"/>
    <path id="Path_8" data-name="Path 8" d="M196.815,457.569a.349.349,0,0,0,.654.022,105.733,105.733,0,0,1,9.307-20.212c3.085-5.219,7.364-7.432,8.353-6.385,1.119,1.185-1,5.42-4.195,7.685-5.852,4.151-10.914,3.523-14.158,3.235-.6-.053-.855,1.377,0,1.425,7.968.446,12.475-2.1,14.566-3.323,4.492-2.636,6.281-7.586,4.6-9.458-1.074-1.2-3.279-.887-4.482-.241a16.472,16.472,0,0,0-5.479,5.17,97.487,97.487,0,0,0-5.774,10.084q-2.176,4.11-4.259,8.27a13.465,13.465,0,0,0,.865,3.728" transform="translate(-177.146 -388.556)"/>
    <path id="Path_9" data-name="Path 9" d="M427.223,399.474c-.936-.507,1.257-4.09,2.394-6.394.139-.281-.534-2.315-1.124-1.672a47.53,47.53,0,0,1-3.409,3.432c-.667-2.466-2.913-1.487-4.187-.273-1.018.97-1.926,2.64-1.471,4.026.639,1.946,3.526-.023,4.648-1.589-.553,2.51-3,5.275-4.376,4.914-.882-.231-1.021-1.855-.712-2.69a2.311,2.311,0,0,0-.178-1.342c-.568.953-1.44,4.056-.1,5.154,2.095,1.715,6.721-.885,6.475-7.153,1.116-1.336,2.528-2.859,3.092-3.522-.328.911-1.637,4-1.937,4.922-.194.6-1.883,5.392-.319,5.392.862,0,6.428-8.255,9.54-10.81l-.036-1.162c-3.785,1.368-7.619,9.134-8.3,8.766m-2.872-4.01c-.971,1.476-2.738,2.988-3.545,2.4-.97-.707-.14-2.02.433-2.708.884-1.062,3.391-2.3,3.112.309" transform="translate(-377.937 -353.26)"/>
    <path id="Path_10" data-name="Path 10" d="M826.781,8.931c-4.136-.051-6.533-4.248-6.626-7.982-.006-.244-.048-.95-.418-.95s-.417.728-.418.95c-.01,3.735-2.278,7.993-6.426,8.136-.258,0-.4.37-.435.786,0,.005,0,.011,0,.016,0,.053-.005.105-.005.159,0,.014,0,.028,0,.042,0,.044,0,.088.006.132,0,.026.006.05.009.075s.007.062.011.092c.008.046.017.09.028.133,0,.007,0,.015,0,.022.069.261.2.45.381.444,4.136.051,6.533,4.248,6.626,7.982.006.244.048.95.418.95s.417-.728.418-.95c.01-3.657,2.185-7.816,6.169-8.122q.127-.01.257-.014c.59-.02.59-1.892,0-1.9m-6.878,7.8a13.542,13.542,0,0,0-4.962-6.738,13.787,13.787,0,0,0,4.829-6.884,13.844,13.844,0,0,0,5.019,6.813,13.69,13.69,0,0,0-4.887,6.809" transform="translate(-734.583 0.001)"/>
    <path id="Path_11" data-name="Path 11" d="M78.7,94.493c-10.408.582-18.827,2.408-28.937,4.925a153.773,153.773,0,0,0-26.93,9.209c-6.287,2.88-12.679,6.288-17.719,11.1C2.209,122.5-.7,126.345.148,130.615c.589,2.983,3.022,5,5.623,6.294,4.26,2.118,9.172,2.871,13.859,3.308.413.039.462-1.381,0-1.424A42.983,42.983,0,0,1,7.346,136.17c-2.471-1.01-5.243-2.56-6.325-5.151-1.606-3.844,2.049-7.873,4.63-10.267,4.836-4.485,10.837-7.728,16.779-10.489a149.857,149.857,0,0,1,25.457-8.944A147.267,147.267,0,0,1,78.6,96.432c.452-.025.527-1.963.1-1.939" transform="translate(0 -85.436)"/>
    <path id="Path_12" data-name="Path 12" d="M533.825,359.331c-.34.7-.977,1.082-1.422.864s-.53-.958-.19-1.653.977-1.082,1.422-.864.53.958.19,1.653" transform="translate(-481.014 -323.341)"/>
  </g>
</svg>
