<svg id="Group_40" data-name="Group 40" xmlns="http://www.w3.org/2000/svg" xmlns:xlink="http://www.w3.org/1999/xlink" width="287.272" height="387.361" viewBox="0 0 287.272 387.361">
  <defs>
    <clipPath id="clip-path">
      <rect id="Rectangle_15" data-name="Rectangle 15" width="287.272" height="387.361" fill="none"/>
    </clipPath>
  </defs>
  <g id="Group_22" data-name="Group 22" clip-path="url(#clip-path)">
    <path id="Path_25" data-name="Path 25" d="M278.67,173.714C198.23,172.728,151.617,91.089,149.8,18.471,149.686,13.718,148.875,0,141.678,0c-7.067,0-8.116,14.161-8.127,18.471-.2,72.641-44.311,155.461-124.978,158.238C3.551,176.648.718,183.9.121,191.994c-.009.1-.007.209-.015.311-.067,1.023-.11,2.05-.106,3.085,0,.274.024.542.03.815.019.861.041,1.719.11,2.567.039.5.116.973.171,1.461.071.6.127,1.2.222,1.78.147.9.339,1.747.548,2.584.034.138.056.287.091.421,1.337,5.07,3.806,8.754,7.4,8.631,80.442.984,127.052,82.623,128.866,155.243.119,4.753.928,18.469,8.127,18.469,7.067,0,8.114-14.159,8.127-18.469.2-71.129,42.491-152.014,119.982-157.962q2.475-.19,4.994-.278c11.468-.4,11.473-36.8,0-36.938m-133.761,151.7c-11.958-45.83-58.354-107.59-96.495-131.042,37.451-24.345,82.928-87.95,93.923-133.882,11.958,45.83,59.48,109.049,97.621,132.5-37.451,24.345-84.054,86.491-95.048,132.423" transform="translate(0)" fill="#fff"/>
  </g>
</svg>
